<svg width="24" height="24" viewBox="0 0 24 24" fill="none" xmlns="http://www.w3.org/2000/svg">
<g clip-path="url(#clip0_6265_9557)">
<path d="M10.009 10.75C9.16843 10.75 8.34674 10.5007 7.64783 10.0337C6.94892 9.56675 6.40418 8.90299 6.08251 8.12641C5.76084 7.34982 5.67668 6.49529 5.84066 5.67087C6.00465 4.84645 6.40942 4.08917 7.0038 3.4948C7.59817 2.90042 8.35545 2.49565 9.17987 2.33166C10.0043 2.16768 10.8588 2.25184 11.6354 2.57351C12.412 2.89519 13.0757 3.43992 13.5427 4.13883C14.0097 4.83774 14.259 5.65943 14.259 6.5C14.2577 7.62677 13.8095 8.707 13.0127 9.50374C12.216 10.3005 11.1358 10.7487 10.009 10.75ZM10.009 3.75C9.4651 3.75 8.93342 3.91129 8.48118 4.21346C8.02895 4.51563 7.67647 4.94513 7.46833 5.44762C7.26019 5.95012 7.20573 6.50305 7.31184 7.0365C7.41795 7.56995 7.67986 8.05995 8.06446 8.44455C8.44905 8.82914 8.93905 9.09105 9.4725 9.19716C10.0059 9.30327 10.5589 9.24881 11.0614 9.04067C11.5639 8.83253 11.9934 8.48005 12.2955 8.02782C12.5977 7.57558 12.759 7.0439 12.759 6.5C12.7585 5.77082 12.4686 5.07165 11.953 4.55604C11.4373 4.04043 10.7382 3.75053 10.009 3.75ZM11 21.75H6C3.582 21.75 2.25 20.425 2.25 18.02C2.25 15.358 3.756 12.25 8 12.25H12C12.7706 12.2366 13.5373 12.3612 14.264 12.618C14.4364 12.6973 14.5723 12.839 14.6443 13.0146C14.7163 13.1901 14.7192 13.3864 14.6522 13.564C14.5852 13.7415 14.4535 13.8871 14.2835 13.9713C14.1135 14.0556 13.9178 14.0723 13.736 14.018C13.1779 13.826 12.59 13.7352 12 13.75H8C7.42893 13.706 6.85512 13.7864 6.31816 13.9857C5.7812 14.185 5.29388 14.4985 4.88983 14.9044C4.48578 15.3104 4.17462 15.7992 3.97783 16.3371C3.78105 16.875 3.70331 17.4492 3.75 18.02C3.75 19.583 4.423 20.25 6 20.25H11C11.1989 20.25 11.3897 20.329 11.5303 20.4697C11.671 20.6103 11.75 20.8011 11.75 21C11.75 21.1989 11.671 21.3897 11.5303 21.5303C11.3897 21.671 11.1989 21.75 11 21.75ZM20.157 22.679C19.9604 22.6786 19.7667 22.6313 19.592 22.541L18 21.722L16.409 22.541C16.2047 22.648 15.9745 22.6953 15.7446 22.6776C15.5148 22.6599 15.2945 22.5779 15.109 22.441C14.9258 22.3082 14.7839 22.1262 14.6997 21.9162C14.6155 21.7062 14.5924 21.4766 14.633 21.254L14.933 19.544L13.615 18.286C13.4537 18.132 13.3392 17.9356 13.2846 17.7194C13.23 17.5032 13.2374 17.276 13.3062 17.0639C13.3749 16.8517 13.5021 16.6633 13.6731 16.5202C13.8441 16.3771 14.0521 16.2852 14.273 16.255L16.109 15.995L16.899 14.426C17.002 14.2227 17.1593 14.0519 17.3535 13.9325C17.5476 13.8132 17.7711 13.75 17.999 13.75C18.2269 13.75 18.4504 13.8132 18.6445 13.9325C18.8387 14.0519 18.996 14.2227 19.099 14.426L19.889 15.994L21.725 16.254C21.9461 16.2842 22.1541 16.3762 22.3252 16.5194C22.4963 16.6626 22.6234 16.8512 22.6921 17.0635C22.7607 17.2758 22.768 17.5032 22.7132 17.7194C22.6583 17.9357 22.5435 18.1321 22.382 18.286L21.064 19.54L21.364 21.251C21.4037 21.4737 21.38 21.703 21.2957 21.9129C21.2114 22.1228 21.0697 22.3047 20.887 22.438C20.6757 22.5944 20.4199 22.6789 20.157 22.679ZM18 20.185C18.1917 20.1847 18.3806 20.2303 18.551 20.318L19.79 20.956L19.558 19.63C19.5245 19.4382 19.5388 19.2412 19.5997 19.0563C19.6605 18.8714 19.7661 18.7043 19.907 18.57L20.876 17.646L19.521 17.454C19.3301 17.4266 19.1487 17.3535 18.992 17.2411C18.8353 17.1286 18.7081 16.9801 18.621 16.808L18 15.578L17.379 16.81C17.2917 16.9817 17.1643 17.1299 17.0077 17.2419C16.851 17.354 16.6697 17.4268 16.479 17.454L15.124 17.646L16.093 18.571C16.2337 18.7049 16.3392 18.8714 16.4003 19.0557C16.4613 19.2401 16.476 19.4366 16.443 19.628L16.211 20.956L17.45 20.318C17.6201 20.2305 17.8087 20.1849 18 20.185Z" fill="white"/>
</g>
<defs>
<clipPath id="clip0_6265_9557">
<rect width="24" height="24" fill="white"/>
</clipPath>
</defs>
</svg>
