<svg width="24" height="24" viewBox="0 0 24 24" fill="none" xmlns="http://www.w3.org/2000/svg">
<path fill-rule="evenodd" clip-rule="evenodd" d="M9.367 2.25H9.4H14.6H14.633H14.633C15.7252 2.24999 16.5906 2.24999 17.2883 2.30699C18.0017 2.36527 18.6053 2.48688 19.1565 2.76772C20.0502 3.22312 20.7769 3.94978 21.2323 4.84355C21.5131 5.39472 21.6347 5.99835 21.693 6.71173C21.75 7.40935 21.75 8.27485 21.75 9.36698V9.4V14.349L21.75 14.4426C21.7502 15.3314 21.7503 15.9042 21.6188 16.452C21.5024 16.9367 21.3105 17.4 21.05 17.825C20.7557 18.3053 20.3506 18.7103 19.722 19.3387L19.7219 19.3387L19.6558 19.4048L19.4048 19.6558L19.3387 19.722C18.7103 20.3506 18.3053 20.7557 17.825 21.05C17.4 21.3105 16.9367 21.5024 16.452 21.6188C15.9042 21.7503 15.3314 21.7502 14.4426 21.75L14.349 21.75H9.4H9.36698C8.27485 21.75 7.40935 21.75 6.71173 21.693C5.99835 21.6347 5.39472 21.5131 4.84355 21.2323C3.94978 20.7769 3.22312 20.0502 2.76772 19.1565C2.48688 18.6053 2.36527 18.0017 2.30699 17.2883C2.24999 16.5906 2.24999 15.7252 2.25 14.633V14.633V14.6V9.4V9.367V9.36699C2.24999 8.27485 2.24999 7.40935 2.30699 6.71173C2.36527 5.99835 2.48688 5.39472 2.76772 4.84355C3.22312 3.94978 3.94978 3.22312 4.84355 2.76772C5.39472 2.48688 5.99835 2.36527 6.71173 2.30699C7.40935 2.24999 8.27485 2.24999 9.36699 2.25H9.367ZM6.83388 3.80201C6.21325 3.85271 5.829 3.94909 5.52453 4.10423C4.913 4.41582 4.41582 4.913 4.10423 5.52453C3.94909 5.829 3.85271 6.21325 3.80201 6.83388C3.75058 7.46327 3.75 8.26752 3.75 9.4V14.6C3.75 15.7325 3.75058 16.5367 3.80201 17.1661C3.85271 17.7867 3.94909 18.171 4.10423 18.4755C4.41582 19.087 4.913 19.5842 5.52453 19.8958C5.829 20.0509 6.21325 20.1473 6.83388 20.198C7.46327 20.2494 8.26752 20.25 9.4 20.25H14.349C14.7261 20.25 15.0162 20.2493 15.25 20.2441V19.2V19.1695C15.25 18.6354 15.25 18.1895 15.2797 17.8253C15.3108 17.4454 15.3779 17.0888 15.5497 16.7515C15.8134 16.2341 16.2341 15.8134 16.7515 15.5497C17.0888 15.3779 17.4454 15.3107 17.8253 15.2797C18.1896 15.25 18.6354 15.25 19.1695 15.25H19.1696H19.2H20.2441C20.2493 15.0161 20.25 14.7261 20.25 14.349V9.4C20.25 8.26752 20.2494 7.46327 20.198 6.83388C20.1473 6.21325 20.0509 5.829 19.8958 5.52453C19.5842 4.913 19.087 4.41582 18.4755 4.10423C18.171 3.94909 17.7867 3.85271 17.1661 3.80201C16.5367 3.75058 15.7325 3.75 14.6 3.75H9.4C8.26752 3.75 7.46327 3.75058 6.83388 3.80201ZM19.9297 16.75H19.2C18.6276 16.75 18.2434 16.7506 17.9475 16.7747C17.6604 16.7982 17.5231 16.8401 17.4325 16.8862C17.1973 17.0061 17.0061 17.1973 16.8862 17.4325C16.8401 17.523 16.7982 17.6603 16.7748 17.9474C16.7506 18.2433 16.75 18.6275 16.75 19.2V19.9297C16.8496 19.8819 16.9468 19.829 17.0413 19.7711C17.3516 19.5809 17.6271 19.3122 18.3442 18.5952L18.5952 18.3442C19.3122 17.6271 19.5809 17.3516 19.7711 17.0413C19.829 16.9468 19.8819 16.8496 19.9297 16.75ZM6.25 7C6.25 6.58579 6.58579 6.25 7 6.25H15C15.4142 6.25 15.75 6.58579 15.75 7C15.75 7.41421 15.4142 7.75 15 7.75H7C6.58579 7.75 6.25 7.41421 6.25 7ZM7 10.25C6.58579 10.25 6.25 10.5858 6.25 11C6.25 11.4142 6.58579 11.75 7 11.75H13C13.4142 11.75 13.75 11.4142 13.75 11C13.75 10.5858 13.4142 10.25 13 10.25H7ZM6.25 15C6.25 14.5858 6.58579 14.25 7 14.25H9C9.41421 14.25 9.75 14.5858 9.75 15C9.75 15.4142 9.41421 15.75 9 15.75H7C6.58579 15.75 6.25 15.4142 6.25 15Z" fill="white"/>
</svg>
