<svg width="24" height="24" viewBox="0 0 24 24" fill="none" xmlns="http://www.w3.org/2000/svg">
<g clip-path="url(#clip0_6265_9622)">
<path fill-rule="evenodd" clip-rule="evenodd" d="M19.3361 3.11878C19.3773 3.35874 19.2994 3.60375 19.1273 3.7759L15.5503 7.35286C15.3435 7.55962 15.2208 7.68321 15.1369 7.78198C15.0858 7.84226 15.0683 7.87169 15.064 7.87991C15.0491 7.92811 15.0491 7.9797 15.064 8.0279C15.0683 8.03613 15.0858 8.06556 15.1369 8.12583C15.2208 8.2246 15.3435 8.34819 15.5503 8.55495L16.116 9.12063C16.3227 9.32739 16.4463 9.45015 16.5451 9.534C16.6054 9.58517 16.6348 9.60259 16.643 9.60692C16.6912 9.62185 16.7428 9.62185 16.791 9.60692C16.7992 9.60259 16.8287 9.58518 16.889 9.534C16.9877 9.45015 17.1113 9.32739 17.3181 9.12063L20.895 5.54367C21.0672 5.37151 21.3122 5.29364 21.5522 5.33479C21.7921 5.37595 21.9972 5.53103 22.1021 5.75071C23.3002 8.25878 22.8619 11.355 20.7829 13.434C18.8387 15.3782 16.0049 15.8876 13.5944 14.9656L7.34786 21.2122C6.27392 22.2861 4.53272 22.2861 3.45878 21.2122C2.38483 20.1382 2.38483 18.397 3.45878 17.3231L9.70534 11.0765C8.78335 8.66604 9.29273 5.83226 11.237 3.88804C13.316 1.80903 16.4122 1.37071 18.9202 2.56883C19.1399 2.67377 19.295 2.87882 19.3361 3.11878ZM16.7886 9.60811C16.7885 9.60809 16.7891 9.60783 16.7901 9.60742L16.7886 9.60811ZM16.6455 9.60811C16.6455 9.60814 16.6451 9.60794 16.6441 9.60745L16.6455 9.60811ZM15.0628 8.02543C15.0629 8.02545 15.0631 8.02595 15.0635 8.0269L15.0628 8.02543ZM15.0635 7.88092C15.0631 7.88187 15.0629 7.88237 15.0628 7.88238L15.0635 7.88092ZM17.2284 3.55342C15.5136 3.1461 13.6343 3.61199 12.2976 4.9487C10.6821 6.56424 10.3385 8.9723 11.2712 10.9247C11.4082 11.2116 11.3496 11.5536 11.1248 11.7784L4.51944 18.3837C4.03128 18.8719 4.03128 19.6633 4.51944 20.1515C5.00759 20.6397 5.79905 20.6397 6.2872 20.1515L12.8926 13.5461C13.1173 13.3214 13.4594 13.2627 13.7462 13.3997C15.6986 14.3324 18.1067 13.9889 19.7222 12.3733C21.0589 11.0366 21.5248 9.15734 21.1175 7.44251L18.3787 10.1813L18.3602 10.1998C18.1781 10.3819 18.0109 10.5491 17.8597 10.6775C17.6967 10.8159 17.5036 10.9526 17.2578 11.0325C16.9063 11.1467 16.5277 11.1467 16.1762 11.0325C15.9304 10.9526 15.7374 10.8159 15.5743 10.6775C15.4231 10.5491 15.2559 10.3819 15.0739 10.1998L15.0553 10.1813L14.4896 9.61561L14.4711 9.59707C14.289 9.41501 14.1218 9.24781 13.9934 9.0966C13.855 8.93358 13.7183 8.74051 13.6385 8.49469C13.5243 8.14321 13.5243 7.7646 13.6385 7.41313C13.7183 7.1673 13.855 6.97423 13.9934 6.81121C14.1218 6.66 14.289 6.4928 14.4711 6.31074L14.4896 6.2922L17.2284 3.55342Z" fill="white"/>
</g>
<defs>
<clipPath id="clip0_6265_9622">
<rect width="24" height="24" fill="white"/>
</clipPath>
</defs>
</svg>
