<svg width="24" height="24" viewBox="0 0 24 24" fill="none" xmlns="http://www.w3.org/2000/svg">
<path d="M9.00907 10.75C8.1685 10.75 7.34681 10.5007 6.6479 10.0337C5.94899 9.56675 5.40426 8.90299 5.08258 8.12641C4.76091 7.34982 4.67675 6.49529 4.84073 5.67087C5.00472 4.84645 5.40949 4.08917 6.00387 3.4948C6.59824 2.90042 7.35552 2.49565 8.17994 2.33166C9.00436 2.16768 9.85889 2.25184 10.6355 2.57351C11.4121 2.89519 12.0758 3.43992 12.5428 4.13883C13.0098 4.83774 13.2591 5.65943 13.2591 6.5C13.2577 7.62677 12.8096 8.707 12.0128 9.50375C11.2161 10.3005 10.1358 10.7487 9.00907 10.75ZM9.00907 3.75C8.46517 3.75 7.93349 3.91129 7.48125 4.21346C7.02902 4.51563 6.67654 4.94513 6.4684 5.44762C6.26026 5.95012 6.2058 6.50305 6.31191 7.0365C6.41802 7.56995 6.67993 8.05995 7.06453 8.44455C7.44912 8.82914 7.93913 9.09105 8.47257 9.19716C9.00602 9.30327 9.55895 9.24881 10.0615 9.04067C10.5639 8.83253 10.9934 8.48006 11.2956 8.02782C11.5978 7.57558 11.7591 7.0439 11.7591 6.5C11.7585 5.77082 11.4686 5.07165 10.953 4.55604C10.4374 4.04043 9.73825 3.75053 9.00907 3.75ZM13.0001 21.75H5.00007C2.58007 21.75 1.24707 20.425 1.24707 18.019C1.24707 15.357 2.75307 12.25 6.99707 12.25H10.9971C15.2411 12.25 16.7471 15.357 16.7471 18.019C16.7501 20.425 15.4171 21.75 13.0001 21.75ZM7.00007 13.75C6.42906 13.7058 5.85526 13.7861 5.3183 13.9853C4.78133 14.1845 4.29399 14.4979 3.88992 14.9037C3.48585 15.3096 3.17468 15.7983 2.97789 16.3362C2.78109 16.874 2.70336 17.4482 2.75007 18.019C2.75007 19.583 3.42407 20.25 5.00307 20.25H13.0001C14.5791 20.25 15.2531 19.583 15.2531 18.019C15.2998 17.4479 15.222 16.8735 15.0251 16.3354C14.8281 15.7973 14.5167 15.3084 14.1123 14.9025C13.7078 14.4966 13.2201 14.1833 12.6828 13.9843C12.1455 13.7853 11.5713 13.7054 11.0001 13.75H7.00007ZM16.5601 11.19C15.6632 11.1931 14.8011 10.8432 14.1601 10.216C14.0385 10.074 13.9744 9.89175 13.9802 9.70493C13.986 9.5181 14.0614 9.34018 14.1915 9.20603C14.3217 9.07188 14.4972 8.99115 14.6838 8.97968C14.8703 8.96821 15.0545 9.02681 15.2001 9.144C15.5626 9.4974 16.0498 9.69359 16.5561 9.69C16.8156 9.69281 17.073 9.64378 17.3133 9.54577C17.5536 9.44777 17.7718 9.30276 17.9553 9.11927C18.1388 8.93577 18.2838 8.71748 18.3818 8.4772C18.4798 8.23692 18.5289 7.97949 18.5261 7.72C18.5253 7.19777 18.3175 6.69715 17.9482 6.32788C17.5789 5.9586 17.0783 5.7508 16.5561 5.75C16.2691 5.74543 15.9852 5.80955 15.7281 5.937C15.5508 6.02731 15.3449 6.04349 15.1556 5.98197C14.9664 5.92046 14.8094 5.7863 14.7191 5.609C14.6288 5.43171 14.6126 5.2258 14.6741 5.03657C14.7356 4.84735 14.8698 4.69031 15.0471 4.6C15.5161 4.3639 16.035 4.24387 16.5601 4.25C17.4804 4.25 18.363 4.61559 19.0137 5.26634C19.6645 5.91709 20.0301 6.7997 20.0301 7.72C20.0301 8.6403 19.6645 9.52291 19.0137 10.1737C18.363 10.8244 17.4804 11.19 16.5601 11.19ZM19.6601 19.75H18.9801C18.7812 19.75 18.5904 19.671 18.4497 19.5303C18.3091 19.3897 18.2301 19.1989 18.2301 19C18.2301 18.8011 18.3091 18.6103 18.4497 18.4697C18.5904 18.329 18.7812 18.25 18.9801 18.25H19.6601C20.8051 18.25 21.2501 17.81 21.2501 16.68C21.2844 16.2585 21.2267 15.8346 21.0812 15.4375C20.9357 15.0405 20.7057 14.6797 20.4071 14.3802C20.1086 14.0807 19.7486 13.8496 19.352 13.7028C18.9554 13.556 18.5317 13.4971 18.1101 13.53H16.6001C16.4012 13.53 16.2104 13.451 16.0697 13.3103C15.9291 13.1697 15.8501 12.9789 15.8501 12.78C15.8501 12.5811 15.9291 12.3903 16.0697 12.2497C16.2104 12.109 16.4012 12.03 16.6001 12.03H18.1101C18.7308 11.9892 19.3531 12.0816 19.9352 12.3011C20.5173 12.5205 21.0458 12.8618 21.4852 13.3021C21.9246 13.7425 22.2648 14.2717 22.483 14.8543C22.7011 15.4369 22.7922 16.0593 22.7501 16.68C22.7928 17.0954 22.7421 17.5152 22.6016 17.9084C22.4612 18.3017 22.2345 18.6586 21.9382 18.9529C21.642 19.2473 21.2836 19.4716 20.8894 19.6095C20.4953 19.7475 20.0752 19.7955 19.6601 19.75Z" fill="white"/>
</svg>
