<svg width="24" height="17" viewBox="0 0 24 17" fill="none" xmlns="http://www.w3.org/2000/svg">
<path d="M3.51562 6.0625L2.30573 6.46581C1.34864 6.78484 0.703125 7.68044 0.703125 8.68928V12.625H3.04688" stroke="#545152" stroke-width="1.40625" stroke-miterlimit="10" stroke-linecap="round" stroke-linejoin="round"/>
<path d="M20.9531 12.625H23.2969V9.25609C23.2969 7.93792 22.3813 6.79656 21.0945 6.51058L19.0781 6.0625" stroke="#545152" stroke-width="1.40625" stroke-miterlimit="10" stroke-linecap="round" stroke-linejoin="round"/>
<path d="M13.9764 1.375H7.29478C6.14475 1.375 5.11059 2.07517 4.68347 3.14298L3.51562 6.0625H19.0781L16.1726 2.43053C15.6389 1.76336 14.8308 1.375 13.9764 1.375Z" stroke="#545152" stroke-width="1.40625" stroke-miterlimit="10" stroke-linecap="round" stroke-linejoin="round"/>
<path d="M20.9531 12.625C20.9531 14.1783 19.6939 15.4375 18.1406 15.4375C16.5873 15.4375 15.3281 14.1783 15.3281 12.625C15.3281 11.0717 16.5873 9.8125 18.1406 9.8125C19.6939 9.8125 20.9531 11.0717 20.9531 12.625Z" stroke="#545152" stroke-width="1.40625" stroke-miterlimit="10" stroke-linecap="round" stroke-linejoin="round"/>
<path d="M3.04688 12.625C3.04688 14.1783 4.30608 15.4375 5.85938 15.4375C7.41267 15.4375 8.67188 14.1783 8.67188 12.625C8.67188 11.0717 7.41267 9.8125 5.85938 9.8125C4.30608 9.8125 3.04688 11.0717 3.04688 12.625Z" stroke="#545152" stroke-width="1.40625" stroke-miterlimit="10" stroke-linecap="round" stroke-linejoin="round"/>
<path d="M11.1094 6.0625V1.375" stroke="#545152" stroke-width="1.40625" stroke-miterlimit="10" stroke-linecap="round" stroke-linejoin="round"/>
</svg>
