<svg width="20" height="20" viewBox="0 0 20 20" fill="none" xmlns="http://www.w3.org/2000/svg">
<path fill-rule="evenodd" clip-rule="evenodd" d="M5.66957 1.75L5.7 1.75H7.4994L7.5 1.75L7.5006 1.75H12.4994C12.4996 1.75 12.4998 1.75 12.5 1.75C12.5002 1.75 12.5004 1.75 12.5006 1.75H14.3L14.3304 1.75C14.8646 1.74999 15.3104 1.74998 15.6747 1.77974C16.0546 1.81078 16.4112 1.87789 16.7485 2.04973C17.2659 2.31338 17.6866 2.73408 17.9503 3.25153C18.1221 3.58879 18.1892 3.94545 18.2203 4.32533C18.25 4.68954 18.25 5.13535 18.25 5.66946V5.66955V5.7V14.3V14.3305V14.3305C18.25 14.8646 18.25 15.3105 18.2203 15.6747C18.1892 16.0546 18.1221 16.4112 17.9503 16.7485C17.6866 17.2659 17.2659 17.6866 16.7485 17.9503C16.4112 18.1221 16.0546 18.1892 15.6747 18.2203C15.3104 18.25 14.8646 18.25 14.3305 18.25H14.3H12.5017C12.5011 18.25 12.5006 18.25 12.5 18.25C12.4994 18.25 12.4989 18.25 12.4983 18.25H7.50171L7.5 18.25L7.49829 18.25H5.7H5.66955C5.1354 18.25 4.68956 18.25 4.32533 18.2203C3.94545 18.1892 3.58879 18.1221 3.25153 17.9503C2.73408 17.6866 2.31338 17.2659 2.04973 16.7485C1.87789 16.4112 1.81078 16.0546 1.77974 15.6747C1.74998 15.3104 1.74999 14.8646 1.75 14.3304L1.75 14.3V5.7L1.75 5.66957C1.74999 5.13541 1.74998 4.68956 1.77974 4.32533C1.81078 3.94545 1.87789 3.58879 2.04973 3.25153C2.31338 2.73408 2.73408 2.31338 3.25153 2.04973C3.58879 1.87789 3.94545 1.81078 4.32533 1.77974C4.68956 1.74998 5.13541 1.74999 5.66957 1.75ZM13.25 16.75H14.3C14.8724 16.75 15.2566 16.7494 15.5525 16.7252C15.8396 16.7018 15.9769 16.6599 16.0675 16.6138C16.3027 16.4939 16.4939 16.3027 16.6138 16.0675C16.6599 15.9769 16.7018 15.8396 16.7252 15.5525C16.7494 15.2566 16.75 14.8724 16.75 14.3V5.7C16.75 5.12757 16.7494 4.74336 16.7252 4.44748C16.7018 4.16036 16.6599 4.02307 16.6138 3.93251C16.4939 3.69731 16.3027 3.50608 16.0675 3.38624C15.9769 3.3401 15.8396 3.29822 15.5525 3.27476C15.2566 3.25058 14.8724 3.25 14.3 3.25H13.25L13.25 16.75ZM11.75 3.25L11.75 16.75H8.25L8.25 3.25H11.75ZM5.7 3.25H6.75L6.75 16.75H5.7C5.12757 16.75 4.74336 16.7494 4.44748 16.7252C4.16036 16.7018 4.02307 16.6599 3.93251 16.6138C3.69731 16.4939 3.50608 16.3027 3.38624 16.0675C3.3401 15.9769 3.29822 15.8396 3.27476 15.5525C3.25058 15.2566 3.25 14.8724 3.25 14.3V5.7C3.25 5.12757 3.25058 4.74336 3.27476 4.44748C3.29822 4.16036 3.3401 4.02307 3.38624 3.93251C3.50608 3.69731 3.69731 3.50608 3.93251 3.38624C4.02307 3.3401 4.16036 3.29822 4.44748 3.27476C4.74336 3.25058 5.12757 3.25 5.7 3.25Z" fill="#545152"/>
</svg>
