<svg width="20" height="20" viewBox="0 0 20 20" fill="none" xmlns="http://www.w3.org/2000/svg">
<path fill-rule="evenodd" clip-rule="evenodd" d="M8.4165 5.83301C8.4165 4.03808 9.87158 2.58301 11.6665 2.58301C13.2033 2.58301 14.491 3.64966 14.8295 5.08301H17.4998C17.9141 5.08301 18.2498 5.41879 18.2498 5.83301C18.2498 6.24722 17.9141 6.58301 17.4998 6.58301H14.8295C14.491 8.01636 13.2033 9.08301 11.6665 9.08301C9.87158 9.08301 8.4165 7.62793 8.4165 5.83301ZM11.6665 4.08301C10.7 4.08301 9.9165 4.86651 9.9165 5.83301C9.9165 6.79951 10.7 7.58301 11.6665 7.58301C12.633 7.58301 13.4165 6.79951 13.4165 5.83301C13.4165 4.86651 12.633 4.08301 11.6665 4.08301ZM1.6665 5.08301C1.25229 5.08301 0.916504 5.41879 0.916504 5.83301C0.916504 6.24722 1.25229 6.58301 1.6665 6.58301H6.6665C7.08072 6.58301 7.4165 6.24722 7.4165 5.83301C7.4165 5.41879 7.08072 5.08301 6.6665 5.08301H1.6665ZM1.6665 13.4163C1.25229 13.4163 0.916504 13.7521 0.916504 14.1663C0.916504 14.5806 1.25229 14.9163 1.6665 14.9163H4.3368C4.67539 16.3497 5.96305 17.4163 7.49984 17.4163C9.29476 17.4163 10.7498 15.9613 10.7498 14.1663C10.7498 12.3714 9.29476 10.9163 7.49984 10.9163C5.96305 10.9163 4.67538 11.983 4.3368 13.4163H1.6665ZM12.4998 13.4163C12.0856 13.4163 11.7498 13.7521 11.7498 14.1663C11.7498 14.5806 12.0856 14.9163 12.4998 14.9163H17.4998C17.9141 14.9163 18.2498 14.5806 18.2498 14.1663C18.2498 13.7521 17.9141 13.4163 17.4998 13.4163H12.4998ZM5.74984 14.1663C5.74984 13.1998 6.53334 12.4163 7.49984 12.4163C8.46634 12.4163 9.24984 13.1998 9.24984 14.1663C9.24984 15.1328 8.46634 15.9163 7.49984 15.9163C6.53334 15.9163 5.74984 15.1328 5.74984 14.1663Z" fill="#545152"/>
</svg>
