<svg width="16" height="16" viewBox="0 0 16 16" fill="none" xmlns="http://www.w3.org/2000/svg">
<path d="M8.00033 2.66699C8.17713 2.66699 8.34673 2.73723 8.47173 2.86225L11.1384 5.52892C11.3987 5.78927 11.3987 6.21138 11.1384 6.47173C10.8781 6.73206 10.4559 6.73206 10.1956 6.47173L8.00033 4.27647L5.80507 6.47173C5.54471 6.73206 5.12261 6.73206 4.86225 6.47173C4.60191 6.21138 4.60191 5.78927 4.86225 5.52892L7.52893 2.86225C7.65393 2.73723 7.82353 2.66699 8.00033 2.66699ZM4.86225 9.52893C5.12261 9.26859 5.54471 9.26859 5.80507 9.52893L8.00033 11.7242L10.1956 9.52893C10.4559 9.26859 10.8781 9.26859 11.1384 9.52893C11.3987 9.78926 11.3987 10.2114 11.1384 10.4717L8.47173 13.1384C8.21139 13.3987 7.78926 13.3987 7.52893 13.1384L4.86225 10.4717C4.60191 10.2114 4.60191 9.78926 4.86225 9.52893Z" fill="#545152"/>
</svg>
