<svg width="18" height="17" viewBox="0 0 18 17" fill="none" xmlns="http://www.w3.org/2000/svg">
<path fill-rule="evenodd" clip-rule="evenodd" d="M9.00002 0.0419922C9.23848 0.0419924 9.45616 0.177681 9.56116 0.391775L11.9164 5.19381L16.591 5.88199C16.825 5.91643 17.0195 6.07995 17.0935 6.3045C17.1676 6.52906 17.1087 6.7762 16.9411 6.94309L13.436 10.4352L14.6095 15.6038C14.6633 15.8407 14.5749 16.0874 14.3828 16.2362C14.1908 16.385 13.9299 16.409 13.7138 16.2978L9.00002 13.87L4.28619 16.2978C4.07018 16.409 3.80927 16.385 3.6172 16.2362C3.42514 16.0874 3.33673 15.8407 3.39053 15.6038L4.56399 10.4352L1.0589 6.94309C0.891384 6.7762 0.832399 6.52906 0.906487 6.3045C0.980575 6.07995 1.17505 5.91643 1.40899 5.88199L6.08367 5.19381L8.43888 0.391775C8.54389 0.17768 8.76156 0.041992 9.00002 0.0419922ZM9.00002 2.08633L7.06116 6.03948C6.97052 6.22428 6.79469 6.35261 6.59104 6.38259L2.82401 6.93715L5.69114 9.79363C5.84353 9.94546 5.90713 10.165 5.85951 10.3748L4.90653 14.5722L8.71385 12.6114C8.89342 12.5189 9.10662 12.5189 9.28619 12.6114L13.0935 14.5722L12.1405 10.3748C12.0929 10.165 12.1565 9.94546 12.3089 9.79363L15.176 6.93715L11.409 6.38259C11.2053 6.35261 11.0295 6.22428 10.9389 6.03947L9.00002 2.08633Z" fill="#231F20"/>
</svg>
