<svg width="20" height="20" viewBox="0 0 20 20" fill="none" xmlns="http://www.w3.org/2000/svg">
<path fill-rule="evenodd" clip-rule="evenodd" d="M10 3.25C6.27208 3.25 3.25 6.27208 3.25 10C3.25 13.7279 6.27208 16.75 10 16.75C13.7279 16.75 16.75 13.7279 16.75 10C16.75 6.27208 13.7279 3.25 10 3.25ZM1.75 10C1.75 5.44365 5.44365 1.75 10 1.75C14.5563 1.75 18.25 5.44365 18.25 10C18.25 14.5563 14.5563 18.25 10 18.25C5.44365 18.25 1.75 14.5563 1.75 10ZM10.8333 13.3333C10.8333 13.7936 10.4602 14.1667 10 14.1667C9.53976 14.1667 9.16667 13.7936 9.16667 13.3333C9.16667 12.8731 9.53976 12.5 10 12.5C10.4602 12.5 10.8333 12.8731 10.8333 13.3333ZM9.08333 8.33333C9.08333 7.82707 9.49374 7.41667 10 7.41667C10.5063 7.41667 10.9167 7.82707 10.9167 8.33333V8.43443C10.9167 8.70436 10.8094 8.96323 10.6186 9.1541L9.46967 10.303C9.17678 10.5959 9.17678 11.0708 9.46967 11.3637C9.76256 11.6566 10.2374 11.6566 10.5303 11.3637L11.6792 10.2148C12.1514 9.74259 12.4167 9.10219 12.4167 8.43443V8.33333C12.4167 6.99865 11.3347 5.91667 10 5.91667C8.66531 5.91667 7.58333 6.99865 7.58333 8.33333V8.75C7.58333 9.16421 7.91912 9.5 8.33333 9.5C8.74755 9.5 9.08333 9.16421 9.08333 8.75V8.33333Z" fill="#545152"/>
</svg>
