<svg width="20" height="20" viewBox="0 0 20 20" fill="none" xmlns="http://www.w3.org/2000/svg">
<path fill-rule="evenodd" clip-rule="evenodd" d="M9.99984 2.41699C5.81168 2.41699 2.4165 5.81217 2.4165 10.0003C2.4165 14.1885 5.81168 17.5837 9.99984 17.5837C14.188 17.5837 17.5832 14.1885 17.5832 10.0003C17.5832 5.81217 14.188 2.41699 9.99984 2.41699ZM0.916504 10.0003C0.916504 4.98374 4.98325 0.916992 9.99984 0.916992C15.0164 0.916992 19.0832 4.98374 19.0832 10.0003C19.0832 15.0169 15.0164 19.0837 9.99984 19.0837C4.98325 19.0837 0.916504 15.0169 0.916504 10.0003ZM8.88873 11.5837C8.07564 11.5837 7.4165 12.2428 7.4165 13.0559C7.4165 13.2553 7.57818 13.417 7.77762 13.417H12.2221C12.4215 13.417 12.5832 13.2553 12.5832 13.0559C12.5832 12.2428 11.924 11.5837 11.1109 11.5837H8.88873ZM5.9165 13.0559C5.9165 11.4144 7.24721 10.0837 8.88873 10.0837H11.1109C12.7525 10.0837 14.0832 11.4144 14.0832 13.0559C14.0832 14.0837 13.2499 14.917 12.2221 14.917H7.77762C6.74975 14.917 5.9165 14.0837 5.9165 13.0559ZM9.08317 6.66699C9.08317 6.16073 9.49358 5.75033 9.99984 5.75033C10.5061 5.75033 10.9165 6.16073 10.9165 6.66699C10.9165 7.17325 10.5061 7.58366 9.99984 7.58366C9.49358 7.58366 9.08317 7.17325 9.08317 6.66699ZM9.99984 4.25033C8.66515 4.25033 7.58317 5.3323 7.58317 6.66699C7.58317 8.00168 8.66515 9.08366 9.99984 9.08366C11.3345 9.08366 12.4165 8.00168 12.4165 6.66699C12.4165 5.3323 11.3345 4.25033 9.99984 4.25033Z" fill="#545152"/>
</svg>
