<svg width="20" height="20" viewBox="0 0 20 20" fill="none" xmlns="http://www.w3.org/2000/svg">
<path fill-rule="evenodd" clip-rule="evenodd" d="M9.08343 3.33366C9.08343 2.8274 9.49384 2.41699 10.0001 2.41699C10.5064 2.41699 10.9168 2.8274 10.9168 3.33366V4.40856C10.9168 4.74037 11.1348 5.03275 11.4528 5.1274C12.2249 5.35719 12.921 5.76603 13.4926 6.30676C13.7336 6.53472 14.0958 6.57729 14.383 6.41142L15.3154 5.87314C15.7538 5.62001 16.3144 5.77023 16.5676 6.20867C16.8207 6.6471 16.6705 7.20772 16.232 7.46086L15.3009 7.99847C15.0138 8.1642 14.8696 8.49871 14.9461 8.82121C15.0358 9.19889 15.0834 9.59356 15.0834 10.0003C15.0834 10.4071 15.0358 10.8018 14.9461 11.1794C14.8696 11.5019 15.0138 11.8364 15.3009 12.0022L16.232 12.5398C16.6704 12.7929 16.8206 13.3535 16.5675 13.792C16.3144 14.2304 15.7537 14.3806 15.3153 14.1275L14.383 13.5892C14.0958 13.4234 13.7336 13.4659 13.4926 13.6939C12.921 14.2346 12.2249 14.6435 11.4528 14.8733C11.1348 14.9679 10.9168 15.2603 10.9168 15.5921V16.667C10.9168 17.1733 10.5064 17.5837 10.0001 17.5837C9.49384 17.5837 9.08343 17.1733 9.08343 16.667V15.5921C9.08343 15.2603 8.86539 14.9679 8.54737 14.8733C7.77532 14.6435 7.07922 14.2347 6.50762 13.694C6.26662 13.466 5.90451 13.4235 5.61723 13.5893L4.68504 14.1275C4.2466 14.3807 3.68598 14.2304 3.43285 13.792C3.17972 13.3536 3.32994 12.7929 3.76837 12.5398L4.69934 12.0023C4.9864 11.8366 5.13062 11.5021 5.05406 11.1796C4.96439 10.8018 4.91675 10.4071 4.91675 10.0003C4.91675 9.59351 4.96439 9.19881 5.05406 8.82109C5.13062 8.49859 4.9864 8.16407 4.69934 7.99834L3.76831 7.46081C3.32987 7.20767 3.17965 6.64705 3.43278 6.20862C3.68591 5.77018 4.24654 5.61996 4.68497 5.87309L5.61723 6.41133C5.90451 6.57719 6.26663 6.53463 6.50762 6.30667C7.07922 5.76599 7.77532 5.35717 8.54737 5.1274C8.86539 5.03275 9.08343 4.74037 9.08343 4.40856V3.33366ZM10.0001 0.916992C8.66541 0.916992 7.58343 1.99897 7.58343 3.33366V3.87492C6.97384 4.11559 6.40914 4.44441 5.90497 4.8454L5.43497 4.57405C4.2791 3.90671 2.80109 4.30274 2.13375 5.45862C1.4664 6.61449 1.86243 8.0925 3.01831 8.75984L3.48773 9.03087C3.44095 9.34757 3.41675 9.67131 3.41675 10.0003C3.41675 10.3293 3.44095 10.6531 3.48773 10.9698L3.01837 11.2408C1.8625 11.9081 1.46647 13.3861 2.13381 14.542C2.80116 15.6979 4.27916 16.0939 5.43504 15.4266L5.90497 15.1552C6.40914 15.5562 6.97384 15.8851 7.58343 16.1257V16.667C7.58343 18.0017 8.66541 19.0837 10.0001 19.0837C11.3348 19.0837 12.4168 18.0017 12.4168 16.667V16.1257C13.0264 15.885 13.5911 15.5562 14.0953 15.1552L14.5653 15.4265C15.7212 16.0939 17.1992 15.6978 17.8665 14.542C18.5339 13.3861 18.1379 11.9081 16.982 11.2407L16.5125 10.9696C16.5592 10.653 16.5834 10.3293 16.5834 10.0003C16.5834 9.67136 16.5592 9.34767 16.5125 9.03101L16.982 8.75989C18.1379 8.09255 18.534 6.61454 17.8666 5.45867C17.1993 4.30279 15.7213 3.90676 14.5654 4.5741L14.0953 4.84549C13.5911 4.44446 13.0264 4.11562 12.4168 3.87493V3.33366C12.4168 1.99897 11.3348 0.916992 10.0001 0.916992ZM8.25008 10.0003C8.25008 9.03383 9.03359 8.25033 10.0001 8.25033C10.9666 8.25033 11.7501 9.03383 11.7501 10.0003C11.7501 10.9668 10.9666 11.7503 10.0001 11.7503C9.03359 11.7503 8.25008 10.9668 8.25008 10.0003ZM10.0001 6.75033C8.20516 6.75033 6.75008 8.2054 6.75008 10.0003C6.75008 11.7953 8.20516 13.2503 10.0001 13.2503C11.795 13.2503 13.2501 11.7953 13.2501 10.0003C13.2501 8.2054 11.795 6.75033 10.0001 6.75033Z" fill="#545152"/>
</svg>
