<svg width="20" height="20" viewBox="0 0 20 20" fill="none" xmlns="http://www.w3.org/2000/svg">
<path fill-rule="evenodd" clip-rule="evenodd" d="M6.66673 0.917059L6.5316 0.917025C5.57696 0.916659 4.92495 0.916409 4.37242 1.09062C3.20556 1.45853 2.29154 2.37255 1.92363 3.53941C1.74942 4.09194 1.74967 4.74395 1.75003 5.69859L1.75007 5.83372L1.75007 14.1671L1.75003 14.3022C1.74967 15.2568 1.74942 15.9088 1.92363 16.4614C2.29154 17.6282 3.20555 18.5423 4.37242 18.9102C4.92495 19.0844 5.57697 19.0841 6.53161 19.0838L6.66673 19.0837L6.80186 19.0838C7.7565 19.0841 8.40851 19.0844 8.96105 18.9102C10.1279 18.5423 11.0419 17.6282 11.4098 16.4614C11.5841 15.9088 11.5838 15.2568 11.5834 14.3022L11.5834 14.1671V13.3337C11.5834 12.9195 11.2476 12.5837 10.8334 12.5837C10.4192 12.5837 10.0834 12.9195 10.0834 13.3337V14.1671C10.0834 15.3093 10.0746 15.7078 9.97926 16.0103C9.75852 16.7104 9.21011 17.2588 8.50999 17.4796C8.20746 17.575 7.80902 17.5837 6.66673 17.5837C5.52445 17.5837 5.12601 17.575 4.82348 17.4796C4.12336 17.2588 3.57495 16.7104 3.3542 16.0103C3.25882 15.7078 3.25007 15.3093 3.25007 14.1671L3.25007 5.83373C3.25007 4.69144 3.25882 4.293 3.35421 3.99047C3.57495 3.29035 4.12336 2.74194 4.82348 2.5212C5.12601 2.42581 5.52445 2.41706 6.66673 2.41706C7.80902 2.41706 8.20746 2.42581 8.50999 2.5212C9.21011 2.74194 9.75852 3.29035 9.97926 3.99047C10.0747 4.293 10.0834 4.69144 10.0834 5.83372V6.66706C10.0834 7.08127 10.4192 7.41706 10.8334 7.41706C11.2476 7.41706 11.5834 7.08127 11.5834 6.66706V5.83372L11.5834 5.69859C11.5838 4.74395 11.5841 4.09194 11.4098 3.53941C11.0419 2.37255 10.1279 1.45853 8.96105 1.09062C8.40852 0.916409 7.75651 0.916659 6.80187 0.917025L6.66673 0.917059ZM14.6971 6.13632C14.4042 5.84343 13.9293 5.84343 13.6364 6.13632C13.3435 6.42922 13.3435 6.90409 13.6364 7.19698L15.6894 9.24998H6.66673C6.25252 9.24998 5.91673 9.58577 5.91673 9.99998C5.91673 10.4142 6.25252 10.75 6.66673 10.75H15.6894L13.6364 12.803C13.3435 13.0959 13.3435 13.5708 13.6364 13.8636C13.9293 14.1565 14.4042 14.1565 14.6971 13.8636L18.0304 10.5303C18.1711 10.3897 18.2501 10.1989 18.2501 9.99998C18.2501 9.80107 18.1711 9.61031 18.0304 9.46966L14.6971 6.13632Z" fill="#B6B4B5"/>
</svg>
