<svg width="20" height="20" viewBox="0 0 20 20" fill="none" xmlns="http://www.w3.org/2000/svg">
<path fill-rule="evenodd" clip-rule="evenodd" d="M6.46699 0.916993L6.43489 0.916992C5.62205 0.916985 4.96643 0.916979 4.43552 0.960356C3.88889 1.00502 3.40875 1.09938 2.96453 1.32572C2.25892 1.68524 1.68524 2.25892 1.32572 2.96453C1.09938 3.40875 1.00502 3.88889 0.960356 4.43553C0.916979 4.96644 0.916985 5.62205 0.916992 6.43489L0.916993 6.467V8.53366L0.916992 8.56576C0.916985 9.3786 0.916979 10.0342 0.960356 10.5651C1.00502 11.1118 1.09938 11.5919 1.32572 12.0361C1.68524 12.7417 2.25892 13.3154 2.96453 13.6749C3.40875 13.9013 3.88889 13.9956 4.43553 14.0403C4.84882 14.0741 5.33768 14.0815 5.91746 14.0832C5.91911 14.663 5.92659 15.1518 5.96036 15.5651C6.00502 16.1118 6.09938 16.5919 6.32572 17.0361C6.68524 17.7417 7.25892 18.3154 7.96453 18.6749C8.40875 18.9013 8.88889 18.9956 9.43552 19.0403C9.96643 19.0837 10.622 19.0837 11.4349 19.0837H11.467H13.5337H13.5658C14.3786 19.0837 15.0342 19.0837 15.5651 19.0403C16.1118 18.9956 16.5919 18.9013 17.0361 18.6749C17.7417 18.3154 18.3154 17.7417 18.6749 17.0361C18.9013 16.5919 18.9956 16.1118 19.0403 15.5651C19.0837 15.0342 19.0837 14.3786 19.0837 13.5658V13.5337V11.467V11.4349C19.0837 10.622 19.0837 9.96643 19.0403 9.43552C18.9956 8.88889 18.9013 8.40875 18.6749 7.96453C18.3154 7.25892 17.7417 6.68524 17.0361 6.32572C16.5919 6.09938 16.1118 6.00502 15.5651 5.96036C15.1518 5.92659 14.663 5.91911 14.0832 5.91746C14.0815 5.33768 14.0741 4.84882 14.0403 4.43552C13.9956 3.88889 13.9013 3.40875 13.6749 2.96453C13.3154 2.25892 12.7417 1.68524 12.0361 1.32572C11.5919 1.09938 11.1118 1.00502 10.5651 0.960356C10.0342 0.916979 9.3786 0.916985 8.56576 0.916992L8.53366 0.916993H6.46699ZM14.0837 7.41753V8.53366V8.56578C14.0837 9.37861 14.0837 10.0342 14.0403 10.5651C13.9956 11.1118 13.9013 11.5919 13.6749 12.0361C13.3154 12.7417 12.7417 13.3154 12.0361 13.6749C11.5919 13.9013 11.1118 13.9956 10.5651 14.0403C10.0342 14.0837 9.37861 14.0837 8.56578 14.0837H8.53366H7.41753C7.41924 14.6531 7.42629 15.087 7.45537 15.443C7.49246 15.8969 7.56159 16.1576 7.66223 16.3551C7.87794 16.7785 8.22215 17.1227 8.64551 17.3384C8.84303 17.4391 9.1038 17.5082 9.55767 17.5453C10.0203 17.5831 10.6145 17.5837 11.467 17.5837H13.5337C14.3861 17.5837 14.9803 17.5831 15.443 17.5453C15.8969 17.5082 16.1576 17.4391 16.3551 17.3384C16.7785 17.1227 17.1227 16.7785 17.3384 16.3551C17.4391 16.1576 17.5082 15.8969 17.5453 15.443C17.5831 14.9803 17.5837 14.3861 17.5837 13.5337V11.467C17.5837 10.6145 17.5831 10.0203 17.5453 9.55767C17.5082 9.1038 17.4391 8.84303 17.3384 8.64551C17.1227 8.22215 16.7785 7.87794 16.3551 7.66223C16.1576 7.56159 15.8969 7.49246 15.443 7.45537C15.087 7.42629 14.6531 7.41924 14.0837 7.41753ZM3.64551 2.66223C3.84303 2.56159 4.1038 2.49246 4.55767 2.45537C5.0203 2.41758 5.61454 2.41699 6.46699 2.41699H8.53366C9.38611 2.41699 9.98035 2.41758 10.443 2.45537C10.8969 2.49246 11.1576 2.56159 11.3551 2.66223C11.7785 2.87794 12.1227 3.22215 12.3384 3.64551C12.4391 3.84303 12.5082 4.1038 12.5453 4.55767C12.5831 5.0203 12.5837 5.61454 12.5837 6.46699V8.53366C12.5837 9.38611 12.5831 9.98035 12.5453 10.443C12.5082 10.8969 12.4391 11.1576 12.3384 11.3551C12.1227 11.7785 11.7785 12.1227 11.3551 12.3384C11.1576 12.4391 10.8969 12.5082 10.443 12.5453C9.98035 12.5831 9.38611 12.5837 8.53366 12.5837H6.467C5.61454 12.5837 5.0203 12.5831 4.55767 12.5453C4.1038 12.5082 3.84303 12.4391 3.64551 12.3384C3.22215 12.1227 2.87794 11.7785 2.66223 11.3551C2.56159 11.1576 2.49246 10.8969 2.45537 10.443C2.41758 9.98035 2.41699 9.38611 2.41699 8.53366V6.467C2.41699 5.61454 2.41758 5.0203 2.45537 4.55767C2.49246 4.1038 2.56159 3.84303 2.66223 3.64551C2.87794 3.22215 3.22215 2.87794 3.64551 2.66223Z" fill="#82746F"/>
</svg>
