<svg width="34" height="35" viewBox="0 0 34 35" fill="none" xmlns="http://www.w3.org/2000/svg">
<path d="M19.4618 0.64263C18.1236 -0.0194183 16.5778 -0.125009 15.1619 0.348919C13.7461 0.822846 12.5754 1.83778 11.9054 3.17205L0.584651 25.8652C-0.0763205 27.2036 -0.181343 28.7491 0.292483 30.1646C0.766309 31.5801 1.78055 32.7509 3.11407 33.4217C4.45238 34.0832 5.99802 34.1885 7.41369 33.7146C8.82936 33.2407 10.0001 32.2261 10.6705 30.8922L21.9932 8.19907C22.6546 6.86051 22.7596 5.31468 22.2854 3.89898C21.8111 2.48328 20.7961 1.31266 19.4618 0.64263Z" fill="#A49E99"/>
<path d="M33.3278 25.8653L22.0091 3.16619C21.3391 1.83192 20.1683 0.816986 18.7525 0.343059C17.3367 -0.130868 15.7909 -0.0252777 14.4526 0.63677C13.1187 1.30715 12.1041 2.47792 11.6303 3.89359C11.1564 5.30926 11.2617 6.8549 11.9232 8.19321L23.24 30.8963C23.9104 32.2302 25.0811 33.2448 26.4968 33.7187C27.9125 34.1926 29.4581 34.0873 30.7964 33.4257C32.1313 32.7553 33.1467 31.584 33.621 30.1675C34.0953 28.751 33.9899 27.2044 33.3278 25.8653Z" fill="#DA1A32"/>
<path d="M19.4617 0.643152C19.3822 0.603382 19.3026 0.565598 19.2211 0.529804L19.0779 0.470151L18.9884 0.434355C18.4906 0.243089 17.9686 0.121955 17.4374 0.0744307H17.4095L17.1948 0.0625H17.1073H16.8011H16.7136L16.4988 0.0744307H16.4789C15.9477 0.121955 15.4257 0.243089 14.9279 0.434355L14.8384 0.470151L14.6952 0.529804C14.6137 0.565598 14.5341 0.603382 14.4546 0.643152C13.1207 1.31353 12.1061 2.4843 11.6322 3.89997C11.1583 5.31564 11.2637 6.86128 11.9252 8.19959L16.9621 18.3014L21.9931 8.19959C22.6545 6.86103 22.7595 5.31521 22.2852 3.8995C21.811 2.4838 20.796 1.31318 19.4617 0.643152Z" fill="#6D0020"/>
</svg>
