<svg width="160" height="42" viewBox="0 0 160 42" fill="none" xmlns="http://www.w3.org/2000/svg">
<path d="M59.5951 17.8165C59.932 19.0798 59.6794 19.3887 58.388 19.3887H57.8546C56.5632 19.3887 56.1421 19.0798 55.8052 17.8165L55.0753 14.953H47.6639L46.934 17.8165C46.5971 19.0798 46.176 19.3887 44.8847 19.3887H44.3513C43.0599 19.3887 42.8072 19.0798 43.1441 17.8165L46.2907 6.20115C47.2732 2.57967 47.9751 0.867188 51.372 0.867188C54.7689 0.867188 55.4707 2.57967 56.4533 6.20115L59.5951 17.8165ZM48.5342 11.5819H54.177L52.8411 6.36491C52.392 4.6805 52.2797 4.23132 51.3813 4.23132C50.483 4.23132 50.3707 4.6805 49.9215 6.36491L48.5342 11.5819Z" fill="white"/>
<path d="M70.6725 12.517L74.3501 18.0475C75.08 19.1143 74.9116 19.395 73.6202 19.395H72.5534C71.262 19.395 70.7567 19.1143 70.0268 18.0194L66.6018 12.7977H64.0472V17.7667C64.0472 19.0581 63.7103 19.4044 62.4095 19.4044H61.9042C60.6128 19.4044 60.2666 19.0675 60.2666 17.7667V4.51139C60.2666 2.15322 61.2773 1.14258 63.6354 1.14258H68.2582C72.7219 1.14258 74.4624 3.48203 74.4624 6.99121C74.4624 9.81494 73.3676 11.8152 70.6725 12.517ZM64.8894 4.65176C64.2998 4.65176 64.0472 4.90442 64.0472 5.49396V9.28154H68.2582C70.083 9.28154 70.7006 8.34576 70.7006 6.98186C70.7006 5.46589 70.083 4.6424 68.2582 4.6424L64.8894 4.65176Z" fill="white"/>
<path d="M86.1386 10.6291C86.1386 9.33773 86.4755 8.99149 87.7762 8.99149H88.0102C89.3016 8.99149 89.6478 9.32603 89.6478 10.6291V15.4858C89.6478 17.9001 89.0863 19.1354 86.7001 19.5284C85.9209 19.6595 85.1321 19.7252 84.3419 19.7249C78.2219 19.7249 75.5269 17.8533 75.5269 12.51V8.01828C75.5269 3.97804 78.0254 0.861881 84.2016 0.861881C85.4405 0.84968 86.6731 1.03932 87.8511 1.42335C89.0021 1.81638 89.3671 2.15326 89.3671 3.44464V3.67859C89.3671 4.96997 89.0302 5.33492 87.823 4.94189C86.6833 4.60042 85.5033 4.41162 84.3138 4.38042C80.6643 4.38042 79.401 5.41914 79.401 8.31071V12.8001C79.401 14.7091 80.2151 16.2251 84.37 16.2251C84.7263 16.2242 85.0823 16.2055 85.4368 16.1689C86.0263 16.1128 86.1667 15.8321 86.1667 15.2332L86.1386 10.6291Z" fill="white"/>
<path d="M91.3672 2.77141C91.3672 1.48003 91.7041 1.13379 93.0048 1.13379H93.5101C94.8015 1.13379 95.1477 1.47067 95.1477 2.77141V12.9855C95.1477 15.3998 96.5795 16.2139 98.7692 16.2139C100.959 16.2139 102.363 15.3998 102.363 12.9855V2.77141C102.363 1.48003 102.7 1.13379 104 1.13379H104.506C105.797 1.13379 106.143 1.47067 106.143 2.77141V12.9855C106.143 17.8702 103.027 19.7231 98.7879 19.7231C94.5488 19.7231 91.4046 17.8702 91.4046 12.9855L91.3672 2.77141Z" fill="white"/>
<path d="M107.449 16.9741C107.449 15.6828 107.786 15.3178 109.086 15.6547C110.475 16.0448 111.912 16.2339 113.354 16.2162C115.569 16.2162 116.411 15.8512 116.411 14.7002C116.411 13.858 115.943 13.4369 114.165 12.3982L110.574 10.2927C108.703 9.19779 107.739 7.76604 107.739 5.57865C107.739 2.49057 109.61 0.862308 114.289 0.862308C115.475 0.831492 116.659 0.982986 117.798 1.31149C119.118 1.67644 119.455 1.98525 119.455 3.27663V3.55736C119.455 4.84874 119.118 5.24177 117.798 4.82067C116.656 4.50398 115.474 4.35271 114.289 4.37149C112.436 4.37149 111.622 4.65223 111.622 5.69095C111.622 6.39278 112.015 6.75773 113.166 7.4315L116.909 9.61889C119.071 10.8822 120.306 12.1455 120.306 14.7002C120.306 17.8725 118.435 19.7253 113.318 19.7253C111.888 19.7401 110.462 19.5607 109.079 19.1919C107.788 18.827 107.479 18.5462 107.479 17.2549L107.449 16.9741Z" fill="white"/>
<path d="M44.0846 24.1777C44.0846 22.8863 44.4214 22.54 45.7222 22.54H57.0358C58.3272 22.54 58.6734 22.8769 58.6734 24.1777V24.4303C58.6734 25.7217 58.3365 26.0679 57.0358 26.0679H53.2646V39.1689C53.2646 40.4603 52.9277 40.8065 51.627 40.8065H51.0936C49.8022 40.8065 49.4559 40.4696 49.4559 39.1689V26.0679H45.7128C44.4214 26.0679 44.0752 25.7311 44.0752 24.4303L44.0846 24.1777Z" fill="white"/>
<path d="M70.6725 33.9162L74.3501 39.4467C75.08 40.5135 74.9116 40.7942 73.6202 40.7942H72.5534C71.262 40.7942 70.7567 40.5135 70.0268 39.4186L66.6018 34.197H64.0472V39.166C64.0472 40.4574 63.7103 40.8036 62.4095 40.8036H61.9042C60.6128 40.8036 60.2666 40.4667 60.2666 39.166V25.9176C60.2666 23.5595 61.2773 22.5488 63.6354 22.5488H68.2582C72.7219 22.5488 74.4624 24.8883 74.4624 28.3975C74.4624 31.2329 73.3676 33.2144 70.6725 33.9162ZM64.8894 26.058C64.2998 26.058 64.0472 26.3107 64.0472 26.9002V30.6878H68.2582C70.083 30.6878 70.7006 29.752 70.7006 28.3881C70.7006 26.8721 70.083 26.0487 68.2582 26.0487L64.8894 26.058Z" fill="white"/>
<path d="M92.0854 39.2226C92.4223 40.4859 92.1696 40.7947 90.8782 40.7947H90.3448C89.0534 40.7947 88.6323 40.4859 88.2955 39.2226L87.5656 36.3591H80.1542L79.4243 39.2226C79.0874 40.4859 78.6663 40.7947 77.3749 40.7947H76.8415C75.5501 40.7947 75.2975 40.4859 75.6343 39.2226L78.7786 27.6025C79.7611 23.981 80.463 22.2686 83.8599 22.2686C87.2567 22.2686 87.9586 23.981 88.9412 27.6025L92.0854 39.2226ZM81.0244 32.9903H86.6672L85.3197 27.771C84.8705 26.0865 84.7582 25.6374 83.8599 25.6374C82.9615 25.6374 82.8492 26.0865 82.4 27.771L81.0244 32.9903Z" fill="white"/>
<path d="M96.795 34.0851C96.795 36.0222 97.553 37.6224 101.034 37.6224C102.063 37.6324 103.088 37.4905 104.075 37.2013C105.339 36.8644 105.648 37.1732 105.648 38.4646V38.6985C105.648 39.9899 105.311 40.2987 104.103 40.7198C103.542 40.9163 102.559 41.1409 100.875 41.1409C95.7657 41.1409 92.9209 39.1477 92.9209 34.0945V29.5957C92.9209 25.132 95.4475 22.2686 100.894 22.2686C102.382 22.2686 103.42 22.5025 104.066 22.7364C105.236 23.1856 105.638 23.4664 105.638 24.7577V24.9917C105.638 26.2831 105.273 26.648 104.001 26.255C102.993 25.9377 101.941 25.7798 100.884 25.7871C97.9648 25.7871 96.7857 27.0223 96.7857 29.6051L96.795 34.0851Z" fill="white"/>
<path d="M107.449 24.1777C107.449 22.8863 107.786 22.54 109.086 22.54H109.592C110.881 22.54 111.229 22.8769 111.229 24.1777V39.1665C111.229 40.4579 110.89 40.8042 109.592 40.8042H109.086C107.795 40.8042 107.449 40.4673 107.449 39.1665V24.1777ZM116.851 23.8127C117.665 22.8021 118.199 22.5494 119.49 22.5494H120.697C121.988 22.5494 122.129 22.8021 121.315 23.8127L116.963 29.259C115.925 30.5503 115.672 30.803 115.672 31.3083C115.672 31.7013 115.868 31.8955 116.963 33.2711L121.876 39.5034C122.69 40.5421 122.55 40.7948 121.259 40.7948H120.051C118.76 40.7948 118.227 40.5421 117.412 39.5034L113.342 34.3379C112.303 33.0185 112.05 32.1786 112.05 31.1937C112.05 30.2088 112.303 29.4274 113.342 28.136L116.851 23.8127Z" fill="white"/>
<path d="M123.329 24.1777C123.329 22.8863 123.666 22.54 124.967 22.54H125.472C126.763 22.54 127.11 22.8769 127.11 24.1777V39.1665C127.11 40.4579 126.773 40.8042 125.472 40.8042H124.967C123.675 40.8042 123.329 40.4673 123.329 39.1665V24.1777Z" fill="white"/>
<path d="M128.85 26.5352C128.85 23.26 130.02 22.2119 132.75 22.2119C135.052 22.2119 136.025 22.9699 136.681 25.6369L139.6 37.3973C139.712 37.8652 139.853 37.9869 140.106 37.9869C140.442 37.9869 140.527 37.8184 140.527 37.2008V24.1771C140.527 22.8857 140.863 22.5394 142.164 22.5394H142.557C143.849 22.5394 144.195 22.8763 144.195 24.1771V36.8101C144.195 40.1228 143.025 41.1334 140.433 41.1334C138.019 41.1334 137.008 40.2631 136.334 37.5962L133.471 26.1445C133.33 25.5269 133.237 25.3585 132.909 25.3585C132.582 25.3585 132.516 25.5269 132.516 26.2007V39.1683C132.516 40.4597 132.179 40.8059 130.879 40.8059H130.483C129.194 40.8059 128.846 40.469 128.846 39.1683L128.85 26.5352Z" fill="white"/>
<path d="M156.491 32.0354C156.491 30.744 156.828 30.4094 158.128 30.4094H158.362C159.654 30.4094 160 30.744 160 32.0354V36.8921C160 39.3064 159.438 40.5416 157.052 40.9346C156.273 41.0657 155.484 41.1315 154.694 41.1312C148.574 41.1312 145.879 39.2596 145.879 33.9163V29.4269C145.879 25.3843 148.377 22.2681 154.554 22.2681C155.793 22.2559 157.025 22.4456 158.203 22.8296C159.354 23.2226 159.719 23.5595 159.719 24.8509V25.0848C159.719 26.3762 159.382 26.7412 158.175 26.3481C157.035 26.0067 155.855 25.8179 154.666 25.7867C151.016 25.7867 149.753 26.8254 149.753 29.717V34.2064C149.753 36.1154 150.567 37.6313 154.722 37.6313C155.078 37.6305 155.434 37.6117 155.789 37.5752C156.378 37.519 156.519 37.2383 156.519 36.6394L156.491 32.0354Z" fill="white"/>
<path d="M22.8963 1.7558C21.3219 0.976925 19.5033 0.852701 17.8376 1.41026C16.1719 1.96782 14.7946 3.16186 14.0063 4.73159L0.687825 31.4294C-0.0897888 33.004 -0.213345 34.8222 0.344098 36.4875C0.90154 38.1528 2.09477 39.5302 3.66361 40.3194C5.2381 41.0976 7.0565 41.2215 8.72199 40.664C10.3875 40.1065 11.7649 38.9129 12.5535 37.3436L25.8744 10.6457C26.6525 9.07096 26.776 7.25234 26.2181 5.5868C25.6601 3.92127 24.466 2.54407 22.8963 1.7558Z" fill="#A49E99"/>
<path d="M39.2094 31.4296L25.8932 4.72476C25.105 3.15503 23.7276 1.96099 22.0619 1.40343C20.3963 0.845865 18.5776 0.970089 17.0033 1.74897C15.434 2.53765 14.2403 3.91503 13.6828 5.58052C13.1253 7.24601 13.2492 9.06441 14.0275 10.6389L27.3413 37.3485C28.13 38.9177 29.5074 40.1114 31.1729 40.6689C32.8384 41.2264 34.6568 41.1025 36.2312 40.3242C37.8017 39.5355 38.9963 38.1575 39.5543 36.491C40.1123 34.8245 39.9883 33.005 39.2094 31.4296Z" fill="#DA1A32"/>
<path d="M22.896 1.75539C22.8024 1.7086 22.7088 1.66415 22.6129 1.62204L22.4445 1.55185L22.3392 1.50974C21.7535 1.28472 21.1393 1.14221 20.5144 1.0863H20.4816L20.229 1.07227H20.1261H19.7658H19.6628L19.4102 1.0863H19.3868C18.7618 1.14221 18.1477 1.28472 17.562 1.50974L17.4567 1.55185L17.2883 1.62204C17.1924 1.66415 17.0988 1.7086 17.0052 1.75539C15.4359 2.54407 14.2423 3.92144 13.6848 5.58694C13.1273 7.25243 13.2512 9.07083 14.0294 10.6453L19.9553 22.5297L25.8741 10.6453C26.6522 9.07054 26.7757 7.25192 26.2178 5.58639C25.6598 3.92085 24.4657 2.54365 22.896 1.75539Z" fill="#6D0020"/>
</svg>
