<svg width="22" height="19" viewBox="0 0 22 19" fill="none" xmlns="http://www.w3.org/2000/svg">
<path d="M14.7726 9.97297L13.6496 8.84992C13.7996 8.0217 13.5634 7.27715 12.9409 6.61627C12.3185 5.95537 11.5547 5.69992 10.6496 5.84992L9.52654 4.72687C9.75217 4.62559 9.98358 4.54963 10.2208 4.499C10.4579 4.44835 10.7175 4.42302 10.9996 4.42302C12.1342 4.42302 13.0973 4.81885 13.889 5.61052C14.6807 6.40219 15.0765 7.36532 15.0765 8.49992C15.0765 8.78197 15.0512 9.04479 15.0005 9.28837C14.9499 9.53195 14.8739 9.76015 14.7726 9.97297ZM17.9534 13.0845L16.8496 12.0499C17.4829 11.5666 18.0454 11.0374 18.5371 10.4624C19.0288 9.88742 19.4496 9.23325 19.7996 8.49992C18.9663 6.81659 17.7704 5.47909 16.2121 4.48742C14.6538 3.49575 12.9163 2.99992 10.9996 2.99992C10.5163 2.99992 10.0413 3.03325 9.57459 3.09992C9.10792 3.16659 8.64959 3.26659 8.19959 3.39992L7.03424 2.23457C7.66629 1.98329 8.31179 1.79803 8.97076 1.6788C9.62973 1.55956 10.306 1.49995 10.9996 1.49995C13.3432 1.49995 15.4566 2.1461 17.3399 3.4384C19.2233 4.73071 20.597 6.41789 21.4611 8.49992C21.0906 9.3935 20.612 10.2275 20.0255 11.0018C19.439 11.7762 18.7483 12.4704 17.9534 13.0845ZM18.7611 18.8691L14.715 14.8537C14.2022 15.0435 13.6339 15.1986 13.0102 15.3191C12.3865 15.4396 11.7163 15.4999 10.9996 15.4999C8.6496 15.4999 6.53615 14.8537 4.65924 13.5614C2.78232 12.2691 1.4086 10.582 0.538086 8.49992C0.907319 7.61659 1.38424 6.79255 1.96886 6.0278C2.55348 5.26306 3.19707 4.59993 3.89964 4.0384L1.13039 1.2384L2.18424 0.18457L19.8149 17.8153L18.7611 18.8691ZM4.95346 5.0922C4.42526 5.51271 3.91148 6.01817 3.41211 6.60857C2.91274 7.19895 2.50857 7.8294 2.19959 8.49992C3.03292 10.1833 4.22875 11.5208 5.78709 12.5124C7.34542 13.5041 9.08292 13.9999 10.9996 13.9999C11.4547 13.9999 11.9079 13.9615 12.3592 13.8845C12.8105 13.8076 13.1932 13.7281 13.5073 13.6461L12.2419 12.3499C12.0714 12.4191 11.874 12.4742 11.6496 12.5153C11.4252 12.5563 11.2086 12.5768 10.9996 12.5768C9.86499 12.5768 8.90185 12.181 8.11019 11.3893C7.31852 10.5977 6.92269 9.63452 6.92269 8.49992C6.92269 8.29735 6.9432 8.0855 6.98424 7.86435C7.02527 7.64318 7.08039 7.44093 7.14961 7.2576L4.95346 5.0922Z" fill="#545152"/>
</svg>
