<svg width="32" height="32" viewBox="0 0 32 32" fill="none" xmlns="http://www.w3.org/2000/svg">
<path d="M0 8C0 3.58172 3.58172 0 8 0H32V32H8C3.58172 32 0 28.4183 0 24V8Z" fill="#545152"/>
<path fill-rule="evenodd" clip-rule="evenodd" d="M18.5303 9.46967C18.8232 9.76256 18.8232 10.2374 18.5303 10.5303L13.0607 16L18.5303 21.4697C18.8232 21.7626 18.8232 22.2374 18.5303 22.5303C18.2374 22.8232 17.7626 22.8232 17.4697 22.5303L11.4697 16.5303C11.1768 16.2374 11.1768 15.7626 11.4697 15.4697L17.4697 9.46967C17.7626 9.17678 18.2374 9.17678 18.5303 9.46967Z" fill="white"/>
</svg>
