<svg width="37" height="34" viewBox="0 0 37 34" fill="none" xmlns="http://www.w3.org/2000/svg">
<path d="M13.3488 14.9167C11.9478 14.9167 10.5783 14.5012 9.41349 13.7229C8.24864 12.9446 7.34075 11.8383 6.80463 10.544C6.26851 9.2497 6.12824 7.82548 6.40155 6.45145C6.67486 5.07741 7.34948 3.81529 8.3401 2.82466C9.33073 1.83404 10.5929 1.15942 11.9669 0.886107C13.3409 0.612795 14.7651 0.753069 16.0595 1.28919C17.3538 1.82531 18.46 2.7332 19.2384 3.89805C20.0167 5.0629 20.4321 6.43239 20.4321 7.83334C20.4299 9.71128 19.6829 11.5117 18.355 12.8396C17.0271 14.1675 15.2267 14.9145 13.3488 14.9167ZM13.3488 3.25C12.4423 3.25 11.5561 3.51881 10.8024 4.02243C10.0487 4.52606 9.46123 5.24188 9.11433 6.07937C8.76743 6.91687 8.67666 7.83842 8.85351 8.7275C9.03036 9.61658 9.46688 10.4333 10.1079 11.0742C10.7489 11.7152 11.5655 12.1518 12.4546 12.3286C13.3437 12.5055 14.2652 12.4147 15.1027 12.0678C15.9402 11.7209 16.6561 11.1334 17.1597 10.3797C17.6633 9.62598 17.9321 8.73984 17.9321 7.83334C17.9312 6.61803 17.4481 5.45276 16.5887 4.59341C15.7294 3.73406 14.5641 3.25089 13.3488 3.25ZM20.0004 33.25H6.66711C2.63378 33.25 0.412109 31.0417 0.412109 27.0317C0.412109 22.595 2.92211 17.4167 9.99544 17.4167H16.6621C23.7354 17.4167 26.2454 22.595 26.2454 27.0317C26.2504 31.0417 24.0288 33.25 20.0004 33.25ZM10.0004 19.9167C9.04875 19.8431 8.09243 19.9769 7.19749 20.3089C6.30255 20.6409 5.49031 21.1631 4.81686 21.8396C4.14341 22.516 3.62479 23.3306 3.2968 24.227C2.96881 25.1234 2.83927 26.0803 2.91711 27.0317C2.91711 29.6383 4.04044 30.75 6.67211 30.75H20.0004C22.6321 30.75 23.7554 29.6383 23.7554 27.0317C23.8334 26.0799 23.7037 25.1225 23.3755 24.2257C23.0472 23.3289 22.5281 22.5141 21.8541 21.8375C21.1801 21.161 20.3672 20.6388 19.4716 20.3072C18.5761 19.9756 17.6192 19.8423 16.6671 19.9167H10.0004ZM25.9338 15.65C24.439 15.6551 23.0022 15.072 21.9338 14.0267C21.7312 13.79 21.6243 13.4862 21.634 13.1749C21.6437 12.8635 21.7693 12.567 21.9862 12.3434C22.2031 12.1198 22.4957 11.9853 22.8066 11.9661C23.1176 11.947 23.4244 12.0447 23.6671 12.24C24.2713 12.829 25.0834 13.156 25.9271 13.15C26.3596 13.1547 26.7886 13.073 27.1891 12.9096C27.5896 12.7463 27.9534 12.5046 28.2592 12.1988C28.565 11.893 28.8067 11.5291 28.9701 11.1287C29.1334 10.7282 29.2151 10.2991 29.2104 9.86667C29.2091 8.99628 28.8628 8.16192 28.2473 7.54646C27.6319 6.93101 26.7975 6.58466 25.9271 6.58334C25.4488 6.57572 24.9757 6.68258 24.5471 6.895C24.2516 7.04551 23.9084 7.07247 23.5931 6.96996C23.2777 6.86744 23.016 6.64383 22.8654 6.34834C22.7149 6.05284 22.688 5.70966 22.7905 5.39429C22.893 5.07891 23.1166 4.81718 23.4121 4.66667C24.1939 4.27317 25.0586 4.07312 25.9338 4.08334C27.4676 4.08334 28.9386 4.69265 30.0232 5.77724C31.1078 6.86182 31.7171 8.33284 31.7171 9.86667C31.7171 11.4005 31.1078 12.8715 30.0232 13.9561C28.9386 15.0407 27.4676 15.65 25.9338 15.65ZM31.1004 29.9167H29.9671C29.6356 29.9167 29.3177 29.785 29.0832 29.5506C28.8488 29.3161 28.7171 28.9982 28.7171 28.6667C28.7171 28.3352 28.8488 28.0172 29.0832 27.7828C29.3177 27.5484 29.6356 27.4167 29.9671 27.4167H31.1004C33.0088 27.4167 33.7504 26.6833 33.7504 24.8C33.8076 24.0975 33.7116 23.391 33.469 22.7292C33.2264 22.0675 32.8431 21.4662 32.3456 20.9671C31.848 20.4679 31.248 20.0827 30.587 19.838C29.926 19.5934 29.2198 19.4951 28.5171 19.55H26.0004C25.6689 19.55 25.351 19.4183 25.1166 19.1839C24.8821 18.9495 24.7504 18.6315 24.7504 18.3C24.7504 17.9685 24.8821 17.6505 25.1166 17.4161C25.351 17.1817 25.6689 17.05 26.0004 17.05H28.5171C29.5517 16.9821 30.5888 17.1361 31.559 17.5018C32.5292 17.8674 33.41 18.4363 34.1423 19.1702C34.8747 19.9041 35.4417 20.7862 35.8052 21.7571C36.1688 22.7281 36.3206 23.7656 36.2504 24.8C36.3217 25.4924 36.2372 26.1919 36.0031 26.8474C35.7689 27.5029 35.3912 28.0977 34.8974 28.5882C34.4036 29.0788 33.8064 29.4527 33.1494 29.6826C32.4924 29.9124 31.7923 29.9924 31.1004 29.9167Z" fill="#545152"/>
</svg>
